<?xml version="1.0" encoding="UTF-8"?>
<svg id="Layer_1" data-name="Layer 1" xmlns="http://www.w3.org/2000/svg" xmlns:xlink="http://www.w3.org/1999/xlink" viewBox="0 0 219.9 266.3">
  <defs>
    <style>
      .cls-1 {
        clip-path: url(#clippath);
      }

      .cls-2 {
        fill: none;
      }

      .cls-2, .cls-3, .cls-4, .cls-5, .cls-6, .cls-7 {
        stroke-width: 0px;
      }

      .cls-8 {
        clip-path: url(#clippath-1);
      }

      .cls-9 {
        clip-path: url(#clippath-3);
      }

      .cls-10 {
        clip-path: url(#clippath-2);
      }

      .cls-3 {
        fill: #253e7b;
      }

      .cls-4 {
        fill: #8dc642;
      }

      .cls-5 {
        fill: #f07328;
      }

      .cls-6 {
        fill: #e90c8b;
      }

      .cls-7 {
        fill: #00ad9b;
      }
    </style>
    <clipPath id="clippath">
      <rect class="cls-2" width="219.9" height="266.3"/>
    </clipPath>
    <clipPath id="clippath-1">
      <rect class="cls-2" width="219.9" height="266.3"/>
    </clipPath>
    <clipPath id="clippath-2">
      <rect class="cls-2" width="219.9" height="266.3"/>
    </clipPath>
    <clipPath id="clippath-3">
      <rect class="cls-2" width="219.9" height="266.3"/>
    </clipPath>
  </defs>
  <rect class="cls-3" x=".41" y="248.1" width="218.76" height="18.19"/>
  <polygon class="cls-4" points="56.82 231.3 106.98 133.6 156.48 231.3 56.82 231.3"/>
  <g class="cls-1">
    <path class="cls-3" d="M17.73,11.8c0-3.21-2.1-5.35-5.3-5.35h-6.2v10.73h6.2c3.21,0,5.3-2.14,5.3-5.39M24.1,11.8c0,6.71-4.32,11.2-10.82,11.2h-7.06v9.54H.07V.64h13.22c6.5,0,10.82,4.49,10.82,11.16"/>
    <path class="cls-3" d="M42.24,21.43c0-3.81-2.14-6.33-5.3-6.33s-5.35,2.53-5.35,6.33,2.14,6.33,5.35,6.33,5.3-2.52,5.3-6.33M25.69,21.43c0-7.06,4.53-11.76,11.25-11.76s11.21,4.7,11.21,11.76-4.49,11.76-11.21,11.76-11.25-4.7-11.25-11.76"/>
    <path class="cls-3" d="M51.22,27.28V.64h5.77v25.79c0,.68.34,1.02,1.03,1.02h2.61v5.09h-4.19c-3.55,0-5.22-1.67-5.22-5.26"/>
    <path class="cls-3" d="M76.2,22.83v-.26c-5.73.09-8.3,1.24-8.3,3.59,0,1.58,1.16,2.44,3.21,2.44,3.21,0,5.09-2.14,5.09-5.78M81.97,18.69v13.85h-5.47v-3.12h-.43c-1.41,2.39-3.81,3.76-7.06,3.76-4.15,0-6.63-2.14-6.63-6.03,0-5.05,4.19-7.53,13.81-7.66v-1.02c0-2.48-1.41-3.89-3.81-3.89-2.1,0-3.59,1.07-3.76,3.08h-5.81c.73-5.26,4.62-8,10.01-8,5.9,0,9.15,3.29,9.15,9.02"/>
    <path class="cls-3" d="M99.16,10.3v6.12h-3.34c-2.78,0-3.55,1.28-3.55,4.79v11.33h-5.77V10.3h5.43v3.81h.47c.6-2.31,2.57-3.81,5.05-3.81h1.71Z"/>
    <path class="cls-3" d="M103.44,3.59C103.44,1.62,105.06,0,107.03,0s3.59,1.62,3.59,3.59-1.62,3.55-3.59,3.55-3.59-1.63-3.59-3.55M104.85,15.39h-3.64v-5.09h9.41v22.24h-5.77V15.39Z"/>
    <path class="cls-3" d="M114.09,25.4h5.64c.34,1.92,1.92,3.04,4.36,3.04,2.18,0,3.51-.9,3.51-2.44,0-1.2-.77-1.88-2.31-2.1l-3.93-.51c-4.45-.6-6.8-2.87-6.8-6.46,0-4.36,3.51-7.27,8.64-7.27s8.81,2.91,9.41,7.27h-5.43c-.3-1.67-1.67-2.7-3.93-2.7-2.01,0-3.25.85-3.25,2.27,0,1.28.99,2.01,2.69,2.22l3.89.56c4.28.56,6.5,2.82,6.5,6.33,0,4.57-3.68,7.57-9.02,7.57s-9.32-3.08-9.96-7.78"/>
  </g>
  <polygon class="cls-3" points="25.05 40.56 16.96 64.46 16.49 64.46 8.41 40.56 .07 40.56 .07 72.46 6.23 72.46 6.23 50.99 6.83 50.99 13.84 72.46 19.53 72.46 26.67 50.99 27.23 50.99 27.23 72.46 33.38 72.46 33.38 40.56 25.05 40.56"/>
  <g class="cls-8">
    <path class="cls-3" d="M53.74,61.34c0-3.81-2.14-6.33-5.3-6.33s-5.35,2.53-5.35,6.33,2.14,6.33,5.35,6.33,5.3-2.52,5.3-6.33M37.19,61.34c0-7.06,4.53-11.76,11.25-11.76s11.2,4.7,11.2,11.76-4.49,11.76-11.2,11.76-11.25-4.7-11.25-11.76"/>
    <path class="cls-3" d="M82.78,57.58v14.88h-5.82v-12.49c0-2.82-1.62-4.66-4.15-4.66-2.65,0-4.4,2.14-4.4,5.3v11.85h-5.77v-22.24h5.43v3.17h.47c1.24-2.31,3.72-3.81,6.46-3.81,4.62,0,7.78,3.16,7.78,8"/>
    <path class="cls-3" d="M94.76,55.31v11.04c0,.68.34,1.02,1.03,1.02h3.93v5.09h-5.47c-3.59,0-5.26-1.67-5.26-5.26v-11.89h-4.02v-5.09h4.11v-5.56h5.69v5.56h5l-.04,5.09h-4.96Z"/>
    <path class="cls-3" d="M107.16,59.5h10.82c-.51-3.21-2.44-5.04-5.39-5.04s-4.92,1.84-5.43,5.04M123.54,62.84h-16.42c.47,3.42,2.61,5.39,5.9,5.39,2.35,0,4.11-1.02,4.83-2.82h5.39c-.9,4.62-5.05,7.7-10.48,7.7-6.63,0-11.12-4.7-11.12-11.76s4.4-11.76,10.95-11.76,10.95,4.7,10.95,11.76v1.49Z"/>
    <path class="cls-3" d="M125.85,65.32h5.64c.34,1.92,1.92,3.04,4.36,3.04,2.18,0,3.51-.9,3.51-2.44,0-1.2-.77-1.88-2.31-2.1l-3.93-.51c-4.45-.6-6.8-2.87-6.8-6.46,0-4.36,3.51-7.27,8.64-7.27s8.81,2.91,9.41,7.27h-5.43c-.3-1.67-1.67-2.7-3.93-2.7-2.01,0-3.25.85-3.25,2.27,0,1.28.99,2.01,2.69,2.22l3.89.56c4.28.56,6.5,2.82,6.5,6.33,0,4.57-3.68,7.57-9.02,7.57s-9.32-3.08-9.96-7.78"/>
    <path class="cls-3" d="M146.98,65.32h5.65c.34,1.92,1.92,3.04,4.36,3.04,2.18,0,3.51-.9,3.51-2.44,0-1.2-.77-1.88-2.31-2.1l-3.93-.51c-4.45-.6-6.8-2.87-6.8-6.46,0-4.36,3.51-7.27,8.64-7.27s8.81,2.91,9.41,7.27h-5.43c-.3-1.67-1.67-2.7-3.93-2.7-2.01,0-3.25.85-3.25,2.27,0,1.28.98,2.01,2.69,2.22l3.89.56c4.28.56,6.5,2.82,6.5,6.33,0,4.57-3.68,7.57-9.02,7.57s-9.32-3.08-9.96-7.78"/>
    <path class="cls-3" d="M185,61.34c0-3.81-2.14-6.33-5.3-6.33s-5.35,2.53-5.35,6.33,2.14,6.33,5.35,6.33,5.3-2.52,5.3-6.33M168.45,61.34c0-7.06,4.53-11.76,11.25-11.76s11.21,4.7,11.21,11.76-4.49,11.76-11.21,11.76-11.25-4.7-11.25-11.76"/>
    <path class="cls-3" d="M207.19,50.22v6.12h-3.34c-2.78,0-3.55,1.28-3.55,4.79v11.33h-5.77v-22.24h5.43v3.81h.47c.6-2.31,2.57-3.81,5.05-3.81h1.71Z"/>
    <path class="cls-3" d="M211.47,43.51c0-1.97,1.63-3.59,3.59-3.59s3.59,1.62,3.59,3.59-1.62,3.55-3.59,3.55-3.59-1.63-3.59-3.55M212.88,55.31h-3.63v-5.09h9.41v22.24h-5.77v-17.15Z"/>
  </g>
  <polygon class="cls-3" points=".07 80.47 .07 112.38 21.84 112.38 21.84 106.6 6.23 106.6 6.23 99.16 19.06 99.16 19.06 93.69 6.23 93.69 6.23 86.29 21.32 86.29 21.32 80.47 .07 80.47"/>
  <g class="cls-10">
    <path class="cls-3" d="M24.58,107.12v-26.64h5.77v25.79c0,.68.34,1.02,1.03,1.02h2.61v5.09h-4.19c-3.55,0-5.22-1.67-5.22-5.26"/>
    <path class="cls-3" d="M40.7,99.42h10.82c-.51-3.21-2.44-5.04-5.39-5.04s-4.92,1.84-5.43,5.04M57.08,102.75h-16.42c.47,3.42,2.61,5.39,5.9,5.39,2.35,0,4.11-1.02,4.83-2.82h5.39c-.9,4.62-5.05,7.7-10.48,7.7-6.63,0-11.12-4.7-11.12-11.76s4.4-11.76,10.95-11.76,10.95,4.7,10.95,11.76v1.49Z"/>
    <path class="cls-3" d="M93.73,97.49v14.88h-5.82v-12.49c0-2.82-1.58-4.66-4.02-4.66s-4.11,1.92-4.11,4.83v12.32h-5.82v-12.49c0-2.82-1.54-4.66-3.93-4.66-2.52,0-4.19,2.14-4.19,5.3v11.85h-5.77v-22.24h5.43v3.17h.47c1.2-2.31,3.55-3.81,6.24-3.81,3,0,5.39,1.41,6.63,3.81h.47c1.2-2.31,3.68-3.81,6.54-3.81,4.7,0,7.87,3.16,7.87,8"/>
    <path class="cls-3" d="M102.03,99.42h10.82c-.51-3.21-2.44-5.04-5.39-5.04s-4.92,1.84-5.43,5.04M118.41,102.75h-16.42c.47,3.42,2.61,5.39,5.9,5.39,2.35,0,4.11-1.02,4.83-2.82h5.39c-.9,4.62-5.05,7.7-10.48,7.7-6.63,0-11.12-4.7-11.12-11.76s4.41-11.76,10.95-11.76,10.95,4.7,10.95,11.76v1.49Z"/>
    <path class="cls-3" d="M141.54,97.49v14.88h-5.82v-12.49c0-2.82-1.62-4.66-4.15-4.66-2.65,0-4.4,2.14-4.4,5.3v11.85h-5.77v-22.24h5.43v3.17h.47c1.24-2.31,3.72-3.81,6.46-3.81,4.62,0,7.78,3.16,7.78,8"/>
    <path class="cls-3" d="M152.88,95.23v11.03c0,.68.34,1.03,1.03,1.03h3.93v5.09h-5.47c-3.59,0-5.26-1.67-5.26-5.26v-11.89h-4.02v-5.09h4.11v-5.56h5.69v5.56h5l-.04,5.09h-4.96Z"/>
    <path class="cls-3" d="M174.01,102.67v-.26c-5.73.09-8.3,1.24-8.3,3.59,0,1.58,1.16,2.44,3.21,2.44,3.21,0,5.09-2.14,5.09-5.78M179.78,98.52v13.85h-5.47v-3.12h-.43c-1.41,2.39-3.81,3.76-7.06,3.76-4.15,0-6.63-2.14-6.63-6.03,0-5.05,4.19-7.53,13.82-7.66v-1.02c0-2.48-1.41-3.89-3.81-3.89-2.1,0-3.59,1.07-3.76,3.08h-5.82c.73-5.26,4.62-8,10.01-8,5.9,0,9.15,3.29,9.15,9.02"/>
    <path class="cls-3" d="M196.33,90.14v6.12h-3.34c-2.78,0-3.55,1.28-3.55,4.79v11.33h-5.77v-22.24h5.43v3.81h.47c.6-2.31,2.57-3.81,5.05-3.81h1.71Z"/>
    <path class="cls-3" d="M219.89,90.14l-8.51,23.61c-1.15,3.21-2.22,4.49-4.45,5.3l-6.12,2.27-1.88-4.92,5.22-1.92c.56-.21.77-.47.99-1.16.13-.6.08-.9-.09-1.37l-7.87-21.81h6.67l4.58,15.61h.56l4.4-15.61h6.5Z"/>
  </g>
  <polygon class="cls-7" points="0 132.78 0 232.12 36.39 232.12 36.39 206.22 14.24 206.22 36.39 184.07 36.39 132.78 0 132.78"/>
  <g class="cls-9">
    <path class="cls-6" d="M36.39,132.78v51.29l-22.15,22.15h22.15c20.28,0,36.72-16.44,36.72-36.72s-16.44-36.72-36.72-36.72"/>
    <path class="cls-7" d="M196.88,231.79h.79c-.27,0-.53-.04-.79-.04v.04Z"/>
    <path class="cls-7" d="M196.88,133.11v.04c.27,0,.52-.04.79-.04h-.79Z"/>
    <path class="cls-7" d="M197.68,133.11c-.27,0-.53.04-.79.04v98.6c.27,0,.52.04.79.04h21.49v-98.68h-21.49Z"/>
    <path class="cls-5" d="M196.88,184.07v-50.92c-26.88.43-48.55,22.32-48.55,49.3s21.67,48.87,48.55,49.3v-25.53h22.15l-22.15-22.15Z"/>
  </g>
</svg>